<svg viewBox="0 0 512 512" xmlns="http://www.w3.org/2000/svg">
  <defs>
    <radialGradient id="bg" cx="50%" cy="38%" r="72%">
      <stop offset="0%" stop-color="#0b273c"/>
      <stop offset="62%" stop-color="#061522"/>
      <stop offset="100%" stop-color="#020812"/>
    </radialGradient>
    <linearGradient id="cyan" x1="112" y1="148" x2="404" y2="300">
      <stop offset="0%" stop-color="#18e2f4"/>
      <stop offset="48%" stop-color="#04bdd4"/>
      <stop offset="100%" stop-color="#008fa7"/>
    </linearGradient>
    <linearGradient id="white" x1="122" y1="302" x2="400" y2="122">
      <stop offset="0%" stop-color="#cbd3db"/>
      <stop offset="43%" stop-color="#ffffff"/>
      <stop offset="100%" stop-color="#dce3ea"/>
    </linearGradient>
  </defs>
  <rect width="512" height="512" rx="108" fill="url(#bg)"/>
  <path d="M112 303C178 278 227 214 287 169C324 141 360 124 405 121C336 158 292 220 239 263C200 295 163 306 112 303Z" fill="url(#white)"/>
  <path d="M107 148C171 144 229 189 284 236C329 275 365 298 407 301C342 309 290 273 232 224C187 186 151 157 107 148Z" fill="url(#cyan)"/>
</svg>
